<svg width="482" height="130" viewBox="0 0 482 130" fill="none" xmlns="http://www.w3.org/2000/svg">
<g clip-path="url(#clip0_389_1437)">
<path d="M93.375 55.6497H53.019C51.9777 55.6497 51.1324 56.4951 51.1324 57.5364V77.2671C51.1324 78.3084 51.9777 79.1564 53.019 79.1564H68.7617V103.67C68.7617 103.67 65.227 104.875 55.4537 104.875C43.9243 104.875 27.8177 100.662 27.8177 65.2431C27.8177 29.8177 44.5897 25.1577 60.335 25.1577C73.9644 25.1577 79.8363 27.5564 83.5723 28.7137C84.747 29.0724 85.8323 27.9031 85.8323 26.8617L90.335 7.79775C90.335 7.30975 90.1697 6.72441 89.615 6.32574C88.0977 5.24174 78.8403 0.063076 55.4537 0.063076C28.5137 0.063076 0.877686 11.5244 0.877686 66.6244C0.877686 121.727 32.5177 129.938 59.1804 129.938C81.2563 129.938 94.6484 120.504 94.6484 120.504C95.2004 120.199 95.2604 119.427 95.2604 119.074V57.5364C95.2604 56.4951 94.4163 55.6497 93.375 55.6497Z" fill="#FAFAFA"/>
<path d="M301.353 6.66538C301.353 5.61472 300.521 4.76805 299.479 4.76805H276.757C275.718 4.76805 274.875 5.61472 274.875 6.66538C274.875 6.66938 274.881 50.5774 274.881 50.5774H239.462V6.66538C239.462 5.61472 238.626 4.76805 237.586 4.76805H214.865C213.831 4.76805 212.989 5.61472 212.989 6.66538V125.568C212.989 126.617 213.831 127.471 214.865 127.471H237.586C238.626 127.471 239.462 126.617 239.462 125.568V74.708H274.881C274.881 74.708 274.819 125.564 274.819 125.568C274.819 126.617 275.661 127.471 276.702 127.471H299.478C300.518 127.471 301.35 126.617 301.353 125.568V6.66538Z" fill="#FAFAFA"/>
<path d="M136.254 22.2669C136.254 14.0856 129.694 7.4736 121.601 7.4736C113.515 7.4736 106.951 14.0856 106.951 22.2669C106.951 30.4416 113.515 37.0723 121.601 37.0723C129.694 37.0723 136.254 30.4416 136.254 22.2669Z" fill="#FAFAFA"/>
<path d="M134.629 100.486V45.6005C134.629 44.5578 133.789 43.7058 132.749 43.7058H110.098C109.058 43.7058 108.129 44.7778 108.129 45.8191V124.455C108.129 126.766 109.569 127.454 111.433 127.454H131.841C134.08 127.454 134.629 126.352 134.629 124.418V100.486Z" fill="#FAFAFA"/>
<path d="M387.71 43.8842H365.162C364.127 43.8842 363.286 44.7375 363.286 45.7868V104.087C363.286 104.087 357.556 108.279 349.426 108.279C341.295 108.279 339.138 104.589 339.138 96.6295V45.7868C339.138 44.7375 338.298 43.8842 337.263 43.8842H314.378C313.346 43.8842 312.499 44.7375 312.499 45.7868V100.478C312.499 124.125 325.678 129.911 343.807 129.911C358.682 129.911 370.674 121.692 370.674 121.692C370.674 121.692 371.243 126.023 371.503 126.536C371.76 127.048 372.434 127.567 373.162 127.567L387.72 127.502C388.752 127.502 389.599 126.648 389.599 125.603L389.591 45.7868C389.591 44.7375 388.748 43.8842 387.71 43.8842Z" fill="#FAFAFA"/>
<path d="M440.445 108.207C432.624 107.968 427.319 104.419 427.319 104.419V66.7658C427.319 66.7658 432.552 63.5578 438.973 62.9845C447.093 62.2565 454.917 64.7098 454.917 84.0791C454.917 104.506 451.387 108.536 440.445 108.207ZM449.339 41.2138C436.532 41.2138 427.821 46.9271 427.821 46.9271V6.66582C427.821 5.61515 426.981 4.76848 425.947 4.76848H403.159C402.123 4.76848 401.281 5.61515 401.281 6.66582V125.568C401.281 126.618 402.123 127.47 403.161 127.47H418.972C419.684 127.47 420.223 127.103 420.621 126.46C421.015 125.822 421.581 120.978 421.581 120.978C421.581 120.978 430.899 129.808 448.537 129.808C469.247 129.808 481.123 119.304 481.123 82.6538C481.123 46.0031 462.155 41.2138 449.339 41.2138Z" fill="#FAFAFA"/>
<path d="M199.936 43.6954H182.89C182.89 43.6954 182.865 21.1821 182.865 21.1767C182.865 20.3247 182.426 19.8981 181.44 19.8981H158.213C157.31 19.8981 156.825 20.2954 156.825 21.1647V44.4341C156.825 44.4341 145.185 47.2434 144.398 47.4701C143.614 47.6981 143.037 48.4207 143.037 49.2821V63.9047C143.037 64.9567 143.877 65.8061 144.916 65.8061H156.825V100.985C156.825 127.113 175.153 129.679 187.52 129.679C193.172 129.679 199.932 127.865 201.048 127.453C201.722 127.205 202.116 126.505 202.116 125.747L202.134 109.662C202.134 108.613 201.248 107.763 200.25 107.763C199.257 107.763 196.716 108.167 194.1 108.167C185.728 108.167 182.89 104.275 182.89 99.2354C182.89 94.2007 182.889 65.8061 182.889 65.8061H199.936C200.974 65.8061 201.817 64.9567 201.817 63.9047V45.5901C201.817 44.5407 200.974 43.6954 199.936 43.6954Z" fill="#FAFAFA"/>
</g>
<defs>
<clipPath id="clip0_389_1437">
<rect width="480.245" height="129.875" fill="white" transform="matrix(1 0 0 -1 0.877686 129.938)"/>
</clipPath>
</defs>
</svg>
