<svg width="512" height="133" viewBox="0 0 512 133" fill="none" xmlns="http://www.w3.org/2000/svg">
<g clip-path="url(#clip0_389_1360)">
<path d="M133.964 100.262V0.144277H149.519V39.6149C154.418 32.319 161.765 28.6697 171.559 28.6671C179.914 28.6671 186.373 31.1399 190.935 36.0854C195.498 41.031 197.78 47.9217 197.78 56.7574V100.262H182.224V58.9184C182.224 47.4913 177.134 41.7771 166.954 41.7756C161.862 41.7756 157.685 43.3122 154.421 46.3854C151.158 49.4586 149.525 53.7803 149.522 59.3504V100.261L133.964 100.262ZM271.294 91.6214C264.379 98.536 255.689 101.993 245.221 101.993C234.753 101.993 226.038 98.536 219.074 91.6214C212.111 84.7062 208.63 75.9176 208.63 65.255C208.63 54.5932 212.112 45.8304 219.074 38.9669C226.037 32.1019 234.752 28.6686 245.221 28.667C255.689 28.6654 264.38 32.0988 271.294 38.9669C278.21 45.8346 281.667 54.5974 281.667 65.255C281.667 75.9132 278.208 84.7018 271.294 91.6214ZM230.455 82.8328C234.15 87.1544 239.072 89.3154 245.221 89.3154C251.37 89.3154 256.291 87.1544 259.986 82.8328C263.682 78.5112 265.53 72.6523 265.532 65.255C265.532 57.9575 263.66 52.1471 259.914 47.8249C256.169 43.5026 251.271 41.3417 245.221 41.3422C239.074 41.3422 234.151 43.479 230.455 47.7525C226.758 52.0261 224.91 57.8594 224.909 65.2523C224.909 72.6523 226.757 78.5123 230.455 82.8328ZM367.761 30.3958V111.065C367.761 118.556 365.912 123.958 362.214 127.271C358.517 130.584 353.788 132.241 348.028 132.242C341.113 132.242 335.399 130.322 330.885 126.48L336.648 114.235C339.434 117.499 342.459 119.132 345.724 119.135C350.045 119.135 352.205 116.351 352.205 110.781V30.3958H367.761ZM311.91 9.80004V30.396H339.713V43.5044H311.911V78.5101C311.911 84.9454 314.264 88.1627 318.97 88.1621C323.386 88.1621 327.372 84.1282 330.926 76.0609L343.027 82.2559C337.072 95.414 328.62 101.992 317.673 101.991C303.363 101.991 296.207 94.3076 296.207 78.9416V43.5044H285.406V30.396H296.642L300.244 9.80004H311.91ZM359.948 0C362.493 0 364.947 0.950309 366.827 2.66473C367.742 3.51912 368.466 4.55799 368.951 5.71277C369.435 6.86746 369.669 8.1118 369.636 9.36359C369.659 10.5927 369.42 11.8126 368.936 12.9425C368.452 14.0724 367.733 15.0865 366.827 15.9178C365.918 16.7905 364.846 17.4752 363.672 17.9324C362.497 18.3897 361.244 18.6106 359.984 18.5824C357.427 18.6692 354.94 17.7367 353.07 15.9901C352.17 15.1424 351.461 14.1132 350.99 12.9708C350.518 11.8285 350.294 10.5989 350.333 9.36359C350.299 8.11814 350.525 6.8792 350.996 5.72582C351.467 4.57241 352.173 3.52988 353.07 2.66473C354.95 0.950309 357.403 0 359.948 0ZM406.398 101.991C398.426 101.991 391.967 99.9984 387.023 96.0135C382.078 92.028 379.606 86.6755 379.605 79.9549C379.605 73.8089 382.173 68.598 387.312 64.3216C392.449 60.0458 398.908 57.909 406.686 57.9117C414.658 57.9117 421.38 60.4569 426.854 65.5471V57.0467C426.854 52.0545 425.581 48.189 423.036 45.4502C420.491 42.7115 416.865 41.3429 412.161 41.3444C402.653 41.3444 396.747 46.194 394.442 55.8934L380.18 52.8685C382.098 45.3782 385.892 39.4721 391.561 35.1503C397.23 30.8285 404.288 28.6677 412.736 28.6677C421.957 28.6677 429.232 31.0927 434.561 35.9429C439.891 40.793 442.555 47.8753 442.556 57.1899V100.263H427.43V91.4743C422.339 98.4864 415.328 101.992 406.398 101.991ZM409.276 90.467C416.192 90.467 422.05 87.01 426.854 80.0959V77.9327C422.05 72.1708 416.191 69.2895 409.276 69.2901C405.243 69.2901 401.977 70.2753 399.476 72.2457C398.294 73.1163 397.338 74.2569 396.686 75.5727C396.035 76.888 395.707 78.3404 395.73 79.8077C395.692 81.2911 396.006 82.7623 396.644 84.1018C397.283 85.4407 398.229 86.6105 399.405 87.5147C401.586 89.2647 404.429 90.2367 407.934 90.4307L409.276 90.467ZM457.693 100.262V30.3958H472.819V42.4962C476.659 33.6613 483.285 29.2431 492.699 29.2431C498.267 29.2431 502.876 31.0677 506.528 34.717C510.179 38.3663 512.003 43.2641 512 49.4105C511.961 53.0891 511.329 56.7375 510.128 60.2144L495.866 58.7741C496.159 56.8648 496.351 54.9416 496.442 53.0123C496.442 45.8097 493.465 42.2081 487.511 42.2076C483.477 42.2076 480.092 44.3444 477.355 48.6179C474.62 52.8915 473.25 58.5338 473.249 65.5454V100.262H457.693Z" fill="#FAFAFA"/>
<path d="M89.3103 35.185C89.3103 53.6986 81.0582 63.4496 72.1085 69.8635L70.3696 71.0647L68.6254 72.1913L66.8882 73.252L65.1701 74.2556L58.6731 77.9016C58.3349 78.0948 58.0014 78.2872 57.6727 78.4792L55.7597 79.6315C48.9661 83.8723 44.6454 88.45 44.2825 98.8123L44.2577 100.262H25.0322C25.0322 82.3456 32.7623 72.6352 41.3723 66.2141L43.104 64.9723C43.3939 64.7721 43.6843 64.5753 43.9748 64.3815L45.7189 63.2549L47.456 62.1941L50.8605 60.2352L55.6702 57.5446L57.642 56.3916C64.9762 51.9787 69.6814 47.4679 70.0608 36.6345L70.0856 35.185H89.3103ZM64.2796 0.144287C64.2796 18.0591 56.5511 27.7697 47.941 34.191L46.2092 35.4329C45.9193 35.6331 45.629 35.8299 45.3384 36.0237L43.5942 37.1503L41.8569 38.2111L38.4519 40.1701L33.6417 42.8609L31.6699 44.0141C31.351 44.206 31.0371 44.3981 30.7283 44.5909L28.9379 45.7599C23.1818 49.7119 19.581 54.3515 19.2511 63.772L19.2263 65.2214H0C0 46.1105 8.79347 36.3375 18.0705 29.9326L19.8136 28.7697L21.5558 27.677L23.2851 26.6457L30.638 22.5038L32.6099 21.3506C39.9441 16.9373 44.6493 12.4265 45.0286 1.59364L45.0534 0.144287H64.2796Z" fill="#FAFAFA"/>
</g>
<defs>
<clipPath id="clip0_389_1360">
<rect width="512" height="133" fill="white"/>
</clipPath>
</defs>
</svg>
