<svg width="28" height="28" viewBox="0 0 28 28" fill="none" xmlns="http://www.w3.org/2000/svg">
<path fill-rule="evenodd" clip-rule="evenodd" d="M8.30369 4.77553C8.08387 5.06209 7.92264 5.38913 7.82922 5.738L4.59422 17.812C4.40545 18.5164 4.50421 19.267 4.86877 19.8986C5.23333 20.5302 5.83384 20.9911 6.53822 21.18L16.1962 23.769C16.5451 23.8625 16.9089 23.8863 17.267 23.8391C17.6251 23.7919 17.9703 23.6747 18.2831 23.4941C18.5958 23.3135 18.8699 23.073 19.0898 22.7865C19.3096 22.4999 19.4708 22.1729 19.5642 21.824L22.8002 9.75C22.8939 9.40121 22.9179 9.03739 22.8709 8.67932C22.8239 8.32124 22.7069 7.97593 22.5265 7.66308C22.3461 7.35024 22.1058 7.076 21.8194 6.85602C21.533 6.63604 21.206 6.47463 20.8572 6.381L11.1972 3.793C10.8484 3.69955 10.4845 3.67572 10.1265 3.7229C9.76839 3.77007 9.42313 3.8873 9.11037 4.06792C8.79762 4.24853 8.52351 4.48898 8.30369 4.77553ZM10.6475 8.00752C10.5875 8.08565 10.5435 8.17485 10.518 8.27C10.4924 8.36514 10.4859 8.46439 10.4987 8.56207C10.5115 8.65975 10.5434 8.75396 10.5926 8.8393C10.6418 8.92464 10.7074 8.99945 10.7855 9.05945C10.8636 9.11945 10.9528 9.16348 11.048 9.189L18.29 11.129C18.4821 11.1805 18.6869 11.1535 18.8591 11.054C19.0314 10.9545 19.157 10.7906 19.2085 10.5985C19.2599 10.4064 19.233 10.2016 19.1335 10.0294C19.034 9.85713 18.8701 9.73145 18.678 9.68L11.437 7.74C11.3418 7.71444 11.2426 7.70787 11.1449 7.72067C11.0472 7.73347 10.953 7.7654 10.8677 7.81461C10.7823 7.86383 10.7075 7.92938 10.6475 8.00752ZM10.026 10.9544C9.85388 11.054 9.72833 11.2179 9.67699 11.41C9.65142 11.5051 9.64486 11.6034 9.65766 11.7011C9.67046 11.7988 9.70238 11.893 9.7516 11.9783C9.80082 12.0636 9.86637 12.1384 9.9445 12.1985C10.0226 12.2585 10.1118 12.3025 10.207 12.328L17.449 14.269C17.5442 14.2945 17.6435 14.301 17.7412 14.2881C17.8389 14.2752 17.9331 14.2431 18.0185 14.1938C18.1038 14.1445 18.1786 14.0789 18.2386 14.0007C18.2985 13.9225 18.3425 13.8332 18.368 13.738C18.3935 13.6428 18.3999 13.5435 18.387 13.4458C18.3741 13.3481 18.3421 13.2539 18.2928 13.1685C18.2435 13.0832 18.1779 13.0084 18.0997 12.9484C18.0215 12.8885 17.9322 12.8445 17.837 12.819L10.595 10.879C10.4028 10.8277 10.1982 10.8548 10.026 10.9544ZM9.18532 14.094C9.01319 14.1934 8.88755 14.3571 8.83599 14.549C8.78466 14.741 8.81165 14.9455 8.91103 15.1177C9.0104 15.2898 9.17404 15.4154 9.36599 15.467L14.196 16.762C14.2912 16.7875 14.3905 16.794 14.4882 16.7811C14.5859 16.7682 14.6801 16.7361 14.7655 16.6868C14.8508 16.6375 14.9256 16.5719 14.9856 16.4937C15.0455 16.4155 15.0895 16.3262 15.115 16.231C15.1405 16.1358 15.1469 16.0365 15.134 15.9388C15.1211 15.8411 15.0891 15.7469 15.0398 15.6615C14.9905 15.5762 14.9249 15.5014 14.8467 15.4414C14.7685 15.3815 14.6792 15.3375 14.584 15.312L9.75399 14.019C9.56197 13.9677 9.35744 13.9947 9.18532 14.094Z" fill="#FAFAFA"/>
</svg>
