<svg width="19" height="21" viewBox="0 0 19 21" fill="none" xmlns="http://www.w3.org/2000/svg">
<path fill-rule="evenodd" clip-rule="evenodd" d="M4.30369 1.77553C4.08387 2.06209 3.92264 2.38913 3.82922 2.738L0.594223 14.812C0.405451 15.5164 0.504206 16.267 0.868768 16.8986C1.23333 17.5302 1.83384 17.9911 2.53822 18.18L12.1962 20.769C12.5451 20.8625 12.9089 20.8863 13.267 20.8391C13.6251 20.7919 13.9703 20.6747 14.2831 20.4941C14.5958 20.3135 14.8699 20.073 15.0898 19.7865C15.3096 19.4999 15.4708 19.1729 15.5642 18.824L18.8002 6.75C18.8939 6.40121 18.9179 6.03739 18.8709 5.67932C18.8239 5.32124 18.7069 4.97593 18.5265 4.66308C18.3461 4.35024 18.1058 4.076 17.8194 3.85602C17.533 3.63604 17.206 3.47463 16.8572 3.381L7.19722 0.793C6.84837 0.699546 6.48452 0.675725 6.12645 0.722895C5.76839 0.770066 5.42313 0.887304 5.11037 1.06792C4.79762 1.24853 4.52351 1.48898 4.30369 1.77553ZM6.64753 5.00752C6.58753 5.08565 6.54351 5.17485 6.51799 5.27C6.49242 5.36514 6.48586 5.46439 6.49866 5.56207C6.51146 5.65975 6.54338 5.75396 6.5926 5.8393C6.64182 5.92464 6.70737 5.99945 6.7855 6.05945C6.86364 6.11945 6.95283 6.16348 7.04799 6.189L14.29 8.129C14.4821 8.18045 14.6869 8.15347 14.8591 8.05398C15.0314 7.95449 15.157 7.79065 15.2085 7.5985C15.2599 7.40635 15.233 7.20163 15.1335 7.02938C15.034 6.85713 14.8701 6.73145 14.678 6.68L7.43699 4.74C7.34184 4.71444 7.2426 4.70787 7.14491 4.72067C7.04723 4.73347 6.95303 4.7654 6.86769 4.81461C6.78235 4.86383 6.70754 4.92938 6.64753 5.00752ZM6.02603 7.95441C5.85388 8.05399 5.72833 8.21787 5.67699 8.41C5.65142 8.50514 5.64486 8.60339 5.65766 8.70107C5.67046 8.79875 5.70238 8.89296 5.7516 8.9783C5.80082 9.06364 5.86637 9.13845 5.9445 9.19845C6.02264 9.25845 6.11183 9.30248 6.20699 9.328L13.449 11.269C13.5442 11.2945 13.6435 11.301 13.7412 11.2881C13.8389 11.2752 13.9331 11.2431 14.0185 11.1938C14.1038 11.1445 14.1786 11.0789 14.2386 11.0007C14.2985 10.9225 14.3425 10.8332 14.368 10.738C14.3935 10.6428 14.3999 10.5435 14.387 10.4458C14.3741 10.3481 14.3421 10.2539 14.2928 10.1685C14.2435 10.0832 14.1779 10.0084 14.0997 9.94843C14.0215 9.88846 13.9322 9.84448 13.837 9.819L6.59499 7.879C6.40284 7.82771 6.19819 7.85484 6.02603 7.95441ZM5.18532 11.094C5.01319 11.1934 4.88755 11.3571 4.83599 11.549C4.78466 11.741 4.81165 11.9455 4.91103 12.1177C5.0104 12.2898 5.17404 12.4154 5.36599 12.467L10.196 13.762C10.2912 13.7875 10.3905 13.794 10.4882 13.7811C10.5859 13.7682 10.6801 13.7361 10.7655 13.6868C10.8508 13.6375 10.9256 13.5719 10.9856 13.4937C11.0455 13.4155 11.0895 13.3262 11.115 13.231C11.1405 13.1358 11.1469 13.0365 11.134 12.9388C11.1211 12.8411 11.0891 12.7469 11.0398 12.6615C10.9905 12.5762 10.9249 12.5014 10.8467 12.4414C10.7685 12.3815 10.6792 12.3375 10.584 12.312L5.75399 11.019C5.56197 10.9677 5.35744 10.9947 5.18532 11.094Z" fill="#FAFAFA"/>
</svg>
