<svg width="512" height="64" viewBox="0 0 512 64" fill="none" xmlns="http://www.w3.org/2000/svg">
<g clip-path="url(#clip0_389_1350)">
<path d="M52.8666 0C38.7689 0 29.9577 7.04888 26.4333 21.1466C31.72 14.0978 37.8877 11.4544 44.9366 13.2167C48.9584 14.2221 51.833 17.1397 55.0148 20.3695C60.198 25.6307 66.197 31.72 79.2999 31.72C93.3977 31.72 102.209 24.6711 105.733 10.5733C100.447 17.6222 94.2788 20.2655 87.2299 18.5033C83.2081 17.4979 80.3336 14.5802 77.1518 11.3505C71.9685 6.08925 65.9695 0 52.8666 0ZM26.4333 31.72C12.3355 31.72 3.52444 38.7689 0 52.8666C5.28666 45.8177 11.4544 43.1744 18.5033 44.9366C22.5251 45.9421 25.3997 48.8597 28.5815 52.0895C33.7647 57.3507 39.7637 63.4399 52.8666 63.4399C66.9644 63.4399 75.7755 56.3911 79.2999 42.2933C74.0133 49.3422 67.8455 51.9855 60.7966 50.2233C56.7748 49.2178 53.9003 46.3002 50.7185 43.0704C45.5352 37.8092 39.5362 31.72 26.4333 31.72Z" fill="#FAFAFA"/>
<path d="M158.592 26.7309H149.366V44.5881C149.366 49.35 152.491 49.2756 158.592 48.978V56.1952C146.241 57.6833 141.33 54.2607 141.33 44.5881V26.7309H134.485V18.9928H141.33V8.99907L149.366 6.61811V18.9928H158.592V26.7309ZM193.762 18.9928H201.798V56.1952H193.762V50.8381C190.935 54.7816 186.545 57.1625 180.741 57.1625C170.622 57.1625 162.214 48.606 162.214 37.594C162.214 26.5077 170.622 18.0256 180.741 18.0256C186.545 18.0256 190.935 20.4065 193.762 24.2756V18.9928ZM182.006 49.4988C188.703 49.4988 193.762 44.5137 193.762 37.594C193.762 30.6744 188.703 25.6893 182.006 25.6893C175.31 25.6893 170.25 30.6744 170.25 37.594C170.25 44.5137 175.31 49.4988 182.006 49.4988ZM215.191 13.4125C212.363 13.4125 210.057 11.0315 210.057 8.27852C210.057 5.45113 212.363 3.14458 215.191 3.14458C218.018 3.14458 220.325 5.45113 220.325 8.27852C220.325 11.0315 218.018 13.4125 215.191 13.4125ZM211.173 56.1952V18.9928H219.209V56.1952H211.173ZM228.509 56.1952V1.8797H236.545V56.1952H228.509ZM288.703 18.9928H297.185L285.503 56.1952H277.616L269.878 31.1208L262.066 56.1952H254.179L242.497 18.9928H250.979L258.197 44.6625L266.009 18.9928H273.673L281.411 44.6625L288.703 18.9928ZM307.155 13.4125C304.328 13.4125 302.021 11.0315 302.021 8.27852C302.021 5.45113 304.328 3.14458 307.155 3.14458C309.982 3.14458 312.289 5.45113 312.289 8.27852C312.289 11.0315 309.982 13.4125 307.155 13.4125ZM303.137 56.1952V18.9928H311.173V56.1952H303.137ZM340.042 18.0256C348.375 18.0256 354.328 23.6803 354.328 33.353V56.1952H346.292V34.1714C346.292 28.5166 343.018 25.5404 337.959 25.5404C332.676 25.5404 328.509 28.6654 328.509 36.2547V56.1952H320.474V18.9928H328.509V23.7547C330.965 19.8857 334.982 18.0256 340.042 18.0256ZM392.423 4.11185H400.459V56.1952H392.423V50.8381C389.596 54.7816 385.206 57.1625 379.402 57.1625C369.283 57.1625 360.875 48.606 360.875 37.594C360.875 26.5077 369.283 18.0256 379.402 18.0256C385.206 18.0256 389.596 20.4065 392.423 24.2756V4.11185ZM380.667 49.4988C387.363 49.4988 392.423 44.5137 392.423 37.594C392.423 30.6744 387.363 25.6893 380.667 25.6893C373.971 25.6893 368.911 30.6744 368.911 37.594C368.911 44.5137 373.971 49.4988 380.667 49.4988ZM427.393 57.1625C416.158 57.1625 407.75 48.606 407.75 37.594C407.75 26.5077 416.158 18.0256 427.393 18.0256C434.685 18.0256 441.009 21.8202 443.986 27.6238L437.066 31.6416C435.429 28.1446 431.783 25.9125 427.319 25.9125C420.771 25.9125 415.786 30.8976 415.786 37.594C415.786 44.2905 420.771 49.2756 427.319 49.2756C431.783 49.2756 435.429 46.969 437.215 43.5464L444.134 47.4899C441.009 53.3679 434.685 57.1625 427.393 57.1625ZM457.378 29.2607C457.378 36.0315 477.393 31.9393 477.393 45.7042C477.393 53.1446 470.92 57.1625 462.884 57.1625C455.444 57.1625 450.087 53.8143 447.706 48.4571L454.625 44.4393C455.816 47.7875 458.792 49.7964 462.884 49.7964C466.456 49.7964 469.209 48.606 469.209 45.6298C469.209 39.0077 449.194 42.728 449.194 29.4095C449.194 22.4154 455.221 18.0256 462.81 18.0256C468.911 18.0256 473.971 20.8529 476.575 25.7637L469.804 29.5583C468.465 26.6565 465.861 25.3172 462.81 25.3172C459.908 25.3172 457.378 26.5821 457.378 29.2607ZM491.679 29.2607C491.679 36.0315 511.694 31.9393 511.694 45.7042C511.694 53.1446 505.221 57.1625 497.185 57.1625C489.745 57.1625 484.387 53.8143 482.007 48.4571L488.926 44.4393C490.117 47.7875 493.093 49.7964 497.185 49.7964C500.757 49.7964 503.509 48.606 503.509 45.6298C503.509 39.0077 483.495 42.728 483.495 29.4095C483.495 22.4154 489.521 18.0256 497.111 18.0256C503.212 18.0256 508.271 20.8529 510.876 25.7637L504.105 29.5583C502.765 26.6565 500.161 25.3172 497.111 25.3172C494.209 25.3172 491.679 26.5821 491.679 29.2607Z" fill="#FAFAFA"/>
</g>
<defs>
<clipPath id="clip0_389_1350">
<rect width="512" height="64" fill="white"/>
</clipPath>
</defs>
</svg>
